<svg xmlns="http://www.w3.org/2000/svg" viewBox="0 0 64 64"><g id="_27-Cat" data-name="27-Cat"><circle cx="22" cy="11" r="2" style="fill:#7e8596"/><circle cx="12" cy="11" r="2" style="fill:#7e8596"/><path d="M7.38,1l5.15,3.67A12.909,12.909,0,0,0,6.18,8.9C2.94,3.96,7.38,1,7.38,1Z" style="fill:#afb4c8"/><path d="M26.62,1s4.44,2.96,1.2,7.9a12.909,12.909,0,0,0-6.35-4.23Z" style="fill:#afb4c8"/><path d="M60,27V43a4,4,0,0,1-4,4H54a16,16,0,0,0-.5-4H55a1,1,0,0,0,1-1V28a1,1,0,0,0-1-1H47a4,4,0,0,1-4-4V15a2.015,2.015,0,0,1,2-2,2.006,2.006,0,0,1,2,2v7a1,1,0,0,0,1,1h8A4,4,0,0,1,60,27Z" style="fill:#7e8596"/><path d="M17,63H10c0-4,4-4,4-4V43C7.01,36.01,7,30.02,7,22.03A13.988,13.988,0,0,0,17,26a13.988,13.988,0,0,0,10-3.97c.03,3.99,6,8.97,6,8.97h5a16,16,0,1,1,0,32H17Z" style="fill:#afb4c8"/><path d="M14,26c.507,0,1.008-.025,1.5-.073A13.744,13.744,0,0,1,7,22.03c0,.766,0,1.509.008,2.24A14.7,14.7,0,0,0,14,26Z" style="fill:#7e8596"/><path d="M30,31h3s-5.97-4.98-6-8.97a12.431,12.431,0,0,1-2.563,1.977C25.807,27.493,30,31,30,31Z" style="fill:#7e8596"/><path d="M53.5,43A16.012,16.012,0,0,0,38,31H35a16,16,0,1,1,0,32h3A16.028,16.028,0,0,0,53.5,43Z" style="fill:#7e8596"/><path d="M21.47,4.67A12.909,12.909,0,0,1,27.82,8.9,9.822,9.822,0,0,1,30,15a10.027,10.027,0,0,1-3,7.03A13.988,13.988,0,0,1,17,26,13.988,13.988,0,0,1,7,22.03,10.027,10.027,0,0,1,4,15,9.822,9.822,0,0,1,6.18,8.9a12.909,12.909,0,0,1,6.35-4.23,15.246,15.246,0,0,1,8.94,0ZM24,11a2,2,0,1,0-2,2A2.006,2.006,0,0,0,24,11Zm-7,7,2-3H15Zm-3-7a2,2,0,1,0-2,2A2.006,2.006,0,0,0,14,11Z" style="fill:#f2f6fc"/><path d="M27,19.03A13.988,13.988,0,0,1,17,23,13.988,13.988,0,0,1,7,19.03a10.258,10.258,0,0,1-2.871-5.554A9.365,9.365,0,0,0,4,15a10.027,10.027,0,0,0,3,7.03A13.988,13.988,0,0,0,17,26a13.988,13.988,0,0,0,10-3.97A10.027,10.027,0,0,0,30,15a9.365,9.365,0,0,0-.129-1.524A10.258,10.258,0,0,1,27,19.03Z" style="fill:#cdd2e1"/><path d="M21,59s-4,0-4,4H13c0-4,4-4,4-4V47a3.995,3.995,0,0,1,4-4Z" style="fill:#7e8596"/><path d="M33,59c-4,0-4,4-4,4H27V43h8.74A6.209,6.209,0,0,0,32,49c0,10,7,10,7,10Z" style="fill:#7e8596"/><polygon points="19.707 21.293 18 19.586 18 16 16 16 16 19.586 14.293 21.293 15.707 22.707 17 21.414 18.293 22.707 19.707 21.293" style="fill:#cdd2e1"/><polygon points="19 15 17 18 15 15 19 15" style="fill:#7e8596"/><path d="M12,14a3,3,0,1,0-3-3A3,3,0,0,0,12,14Zm0-4a1,1,0,1,1-1,1A1,1,0,0,1,12,10Z"/><path d="M22,14a3,3,0,1,0-3-3A3,3,0,0,0,22,14Zm0-4a1,1,0,1,1-1,1A1,1,0,0,1,22,10Z"/><path d="M14.118,14.528a1,1,0,0,0,.05,1.027L16,18.3v1.283l-1.707,1.707,1.414,1.414L17,21.414l1.293,1.293,1.414-1.414L18,19.586V18.3l1.832-2.748A1,1,0,0,0,19,14H15A1,1,0,0,0,14.118,14.528ZM17.131,16,17,16.2l-.131-.2Z"/><path d="M56,22H48V15a3,3,0,0,0-6,0v8a5.006,5.006,0,0,0,5,5h8V42h-.753A17.028,17.028,0,0,0,38,30H33.369c-1.645-1.438-5.046-4.938-5.34-7.634A10.906,10.906,0,0,0,31,15a10.668,10.668,0,0,0-1.993-6.14,6.623,6.623,0,0,0,.884-4.609A6.922,6.922,0,0,0,27.177.168a1,1,0,0,0-1.135.018L21.276,3.577a16.133,16.133,0,0,0-8.552,0L7.958.186A1,1,0,0,0,6.823.168,6.922,6.922,0,0,0,4.109,4.251,6.623,6.623,0,0,0,4.993,8.86,10.668,10.668,0,0,0,3,15a10.913,10.913,0,0,0,3,7.4c0,7.756.118,13.964,7,21.012V58.1A4.69,4.69,0,0,0,9,63a1,1,0,0,0,1,1H38A17.007,17.007,0,0,0,54.949,48H56a5.006,5.006,0,0,0,5-5V27A5.006,5.006,0,0,0,56,22ZM26.582,2.255A4.214,4.214,0,0,1,27.6,7.183a13.918,13.918,0,0,0-4.04-2.777Zm-19.165,0L10.44,4.406A13.918,13.918,0,0,0,6.4,7.183,4.214,4.214,0,0,1,7.417,2.255Zm4.95,3.522.053.037.049-.068a14.133,14.133,0,0,1,9.062,0l.049.068.053-.037C25.956,7.29,29,10.854,29,15c0,5.514-5.383,10-12,10S5,20.514,5,15C5,10.854,8.044,7.29,12.367,5.777ZM38,62H30.156A2.684,2.684,0,0,1,33,60h6a1,1,0,0,0,0-2c-.245,0-6-.1-6-9,0-5.9,6.716-6,7-6V41c-3.113,0-9,1.672-9,8,0,4.769,1.522,7.47,3.239,9H33a4.686,4.686,0,0,0-4.9,4H28V43H26V62H18.125A2.907,2.907,0,0,1,21,60a1,1,0,0,0,1-1V43H20V58.1A4.657,4.657,0,0,0,16.088,62H11.125A2.907,2.907,0,0,1,14,60a1,1,0,0,0,1-1V43a1,1,0,0,0-.293-.707c-6.07-6.07-6.645-11.32-6.7-18.108A15.382,15.382,0,0,0,17,27a15.3,15.3,0,0,0,9.34-3.086c1.224,3.757,5.464,7.391,6.02,7.855A1,1,0,0,0,33,32h5a15,15,0,0,1,0,30ZM59,43a3,3,0,0,1-3,3H54.949a16.853,16.853,0,0,0-.23-2H55a2,2,0,0,0,2-2V28a2,2,0,0,0-2-2H47a3,3,0,0,1-3-3V15a1,1,0,0,1,2,0v7a2,2,0,0,0,2,2h8a3,3,0,0,1,3,3Z"/></g></svg>